<?xml version="1.0" encoding="UTF-8" standalone="no"?>
<!-- Created with Inkscape (http://www.inkscape.org/) -->

<svg
   width="11.794629mm"
   height="11.794629mm"
   viewBox="0 0 10.72239 10.72239"
   version="1.1"
   id="svg1"
   sodipodi:docname="drawing.svg"
   inkscape:version="1.3 (0e150ed6c4, 2023-07-21)"
   xmlns:inkscape="http://www.inkscape.org/namespaces/inkscape"
   xmlns:sodipodi="http://sodipodi.sourceforge.net/DTD/sodipodi-0.dtd"
   xmlns="http://www.w3.org/2000/svg"
   xmlns:svg="http://www.w3.org/2000/svg">
  <sodipodi:namedview
     id="namedview1"
     pagecolor="#ffffff"
     bordercolor="#000000"
     borderopacity="0.25"
     inkscape:showpageshadow="2"
     inkscape:pageopacity="0.0"
     inkscape:pagecheckerboard="0"
     inkscape:deskcolor="#d1d1d1"
     inkscape:document-units="mm"
     inkscape:zoom="2.6649802"
     inkscape:cx="68.293191"
     inkscape:cy="1.6885679"
     inkscape:window-width="1920"
     inkscape:window-height="1111"
     inkscape:window-x="-9"
     inkscape:window-y="-9"
     inkscape:window-maximized="1"
     inkscape:current-layer="layer1" />
  <defs
     id="defs1" />
  <g
     inkscape:label="Layer 1"
     inkscape:groupmode="layer"
     id="layer1"
     transform="translate(-13.998513,-52.81778)">
    <path
       id="rect2"
       style="fill:#666666;stroke-width:0.154459"
       d="m 13.998513,52.81778 v 2.905155 c 0.456016,0.02907 0.831279,0.04745 1.062656,0.04745 0.219108,0 0.684197,-0.02265 1.395263,-0.06812 v 0.347171 c -0.363801,0.06201 -0.587234,0.126003 -0.669914,0.192143 -0.05788,0.04134 -0.08644,0.09546 -0.08644,0.161606 0,0.08268 0.06596,0.289388 0.19825,0.620117 0.446482,1.112075 0.88254,2.101824 1.308353,2.969986 l 0.651123,-1.853775 c 0.367935,-0.983917 0.551999,-1.554803 0.551999,-1.711899 0,-0.07854 -0.01869,-0.136141 -0.0559,-0.173351 -0.05375,-0.05788 -0.155126,-0.107582 -0.303951,-0.148922 -0.04134,-0.0124 -0.09893,-0.0311 -0.173351,-0.05591 V 55.70226 c 0.520898,0.04547 0.898888,0.06812 1.134532,0.06812 0.285254,0 0.59973,-0.02265 0.94286,-0.06812 v 0.347171 c -0.318325,0.07855 -0.533395,0.177955 -0.645016,0.297844 -0.11162,0.115755 -0.324715,0.584791 -0.638908,1.407478 l -1.209229,3.22461 c -0.351399,1.000454 -0.617675,1.663887 -0.799575,1.990482 -0.120128,0.219179 -0.249317,0.409156 -0.386634,0.57032 h 8.446278 v -2.282219 c -0.519502,-0.03457 -0.930589,-0.05543 -1.18292,-0.05543 -0.219108,0 -0.684199,0.02312 -1.395264,0.06859 v -0.347642 c 0.363801,-0.06201 0.587235,-0.126002 0.669915,-0.192142 0.05788,-0.04134 0.08691,-0.09499 0.08691,-0.161136 0,-0.05764 -0.03435,-0.179294 -0.09865,-0.357507 h -2.538722 c -0.0478,0.164041 -0.07282,0.275988 -0.07282,0.332608 0,0.07855 0.01869,0.136611 0.0559,0.173821 0.05375,0.05788 0.155127,0.107582 0.303952,0.148922 0.04134,0.0124 0.09941,0.03062 0.173821,0.05543 v 0.347642 c -0.520897,-0.04547 -0.899358,-0.06859 -1.135003,-0.06859 -0.285253,0 -0.599259,0.02312 -0.94239,0.06859 V 60.92346 c 0.318326,-0.07855 0.532924,-0.177485 0.644546,-0.297374 0.11162,-0.115756 0.324717,-0.585262 0.638909,-1.407948 l 1.209228,-3.224609 0.769039,-0.458511 1.209229,2.765629 c 0.380338,0.87643 0.706653,1.564481 0.979503,2.064708 0.08682,0.157096 0.165553,0.262896 0.235833,0.316636 0.07636,0.06108 0.206572,0.120628 0.388982,0.179458 V 52.81778 Z m 0,3.336418 v 6.202112 a 1.1496162,1.1496162 0 0 1 0.859238,-0.403076 1.1496162,1.1496162 0 0 1 1.139231,0.995946 c 0.262609,-0.305599 0.494907,-0.807629 0.695283,-1.510831 L 15.483036,58.67272 c -0.380337,-0.87643 -0.707122,-1.564952 -0.979973,-2.065178 -0.08682,-0.157096 -0.165552,-0.262426 -0.235832,-0.316166 -0.05794,-0.04635 -0.149703,-0.09212 -0.268718,-0.137178 z m 7.393958,0.825414 -0.651123,1.854244 c -0.141916,0.379506 -0.247777,0.678376 -0.334957,0.934874 h 2.220207 c -0.420422,-1.037006 -0.832127,-1.969506 -1.234127,-2.789118 z" />
  </g>
</svg>
