<?xml version="1.0" encoding="UTF-8" standalone="no"?>
<!-- Created with Inkscape (http://www.inkscape.org/) -->
<svg id="svg4548" xmlns:rdf="http://www.w3.org/1999/02/22-rdf-syntax-ns#" xmlns="http://www.w3.org/2000/svg" height="36.326mm" width="37.124mm" version="1.1" xmlns:cc="http://creativecommons.org/ns#" xmlns:xlink="http://www.w3.org/1999/xlink" viewBox="0 0 131.54331 128.71574" xmlns:dc="http://purl.org/dc/elements/1.1/">
 <defs id="defs4550">
  <radialGradient id="radialGradient4459-3-9" xlink:href="#linearGradient4479" gradientUnits="userSpaceOnUse" cy="-571.3" cx="559.75" gradientTransform="matrix(1.3882 -.047168 .30412 8.9509 -43.198 4598.9)" r="12.265"/>
  <linearGradient id="linearGradient4479">
   <stop id="stop4481" offset="0"/>
   <stop id="stop4483" stop-opacity="0" offset="1"/>
  </linearGradient>
  <linearGradient id="linearGradient4473" y2="-524" xlink:href="#linearGradient4479" gradientUnits="userSpaceOnUse" x2="471.2" gradientTransform="translate(-.089293 -1.001)" y1="-533.45" x1="457.22"/>
  <radialGradient id="radialGradient4485-5-2" xlink:href="#linearGradient4479" gradientUnits="userSpaceOnUse" cy="-586.49" cx="468.42" gradientTransform="matrix(-.85247 7.3632 -2.2773 -.26366 -465.15 -4235.2)" r="15.41"/>
  <linearGradient id="linearGradient4475" y2="-639.58" xlink:href="#linearGradient4479" gradientUnits="userSpaceOnUse" x2="484.8" gradientTransform="translate(-.0000069531 -.73311)" y1="-527.43" x1="503.15"/>
  <linearGradient id="linearGradient4478" y2="-533.71" xlink:href="#linearGradient4479" gradientUnits="userSpaceOnUse" x2="562.5" gradientTransform="translate(-.0000069531 -.73311)" y1="-522.99" x1="545.89"/>
  <linearGradient id="linearGradient4480" y2="-503.37" xlink:href="#linearGradient4479" gradientUnits="userSpaceOnUse" x2="501.56" gradientTransform="translate(-.0000069531 -.73311)" y1="-644.69" x1="528.06"/>
 </defs>
 <metadata id="metadata4553">
  <rdf:RDF>
   <cc:Work rdf:about="">
    <dc:format>image/svg+xml</dc:format>
    <dc:type rdf:resource="http://purl.org/dc/dcmitype/StillImage"/>
    <dc:title/>
   </cc:Work>
  </rdf:RDF>
 </metadata>
 <g id="layer1" transform="translate(-17.575 -383.3)">
  <g id="g5000-0-4" fill-rule="evenodd" transform="matrix(1.0552 0 0 1.0552 -455.84 1064.8)">
   <path id="path4208-1-26-3-6-1-8" d="m553.68-632.78c2.3344 34.143 7.1146 67.409 9.2795 95.536 0.3923 4.6939 1.3244 9.5241 8.229 9.6106 0.11149 0.61458 0.17941 0.8877 0.17941 0.8877s-16.514 1.5551-17.084-21.329c-2.2414-22.508-6.7604-64.807-7.6978-75.948 1.5822-4.6614 5.0933-8.421 7.0937-8.757z" fill="url(#radialGradient4459-3-9)"/>
   <path id="path4208-1-9-3-46-3" d="m471.04-527.18 0.49107 1.6119-21.194-0.10741c0.12611-0.50689 0.27234-0.90677 0.27234-0.90677s11.234 0.15975 12.738-12.347c-0.7249 9.3743 1.0641 10.809 7.6925 11.749z" fill="url(#linearGradient4473)"/>
   <path id="path4208-1-1-4-7-5" d="m470.14-643.15c-0.83239 17.643-6.3251 67.552-10.933 107.19-0.64001 5.5937-3.3364 8.7232-8.396 8.8321l-0.25525 0.80736c0.58024 0.0518 11.443-0.43267 12.84-12.519 0.70108-28.266 5.1145-58.527 7.0569-84.431 0 0 6.1516-4.0571 11.111 6.7893-4.4364-9.6291-8.0802-18.599-11.424-26.674z" fill="url(#radialGradient4485-5-2)"/>
   <path id="path4208-1-2-4-3-7" d="m481.58-616.34 31.08 74.04c-1.309 2.7008-3.964 7.0971-9.4352-1.9892l-32.703-79.029s6.0213-4.5553 11.058 6.9775z" fill="url(#linearGradient4475)"/>
   <path id="path4208-1-2-8-6-7-1" d="m571.36-526.7s0.11428 0.34706 0.28667 0.98022l-24.91-0.0776 0.3125-1.7458c5.7452-1.305 8.1877-5.069 7.3988-17.177 6.9156 12.9 5.0775 17.007 16.912 18.02z" fill="url(#linearGradient4478)"/>
   <path id="path4208-1-15-8-0-1" d="m509.52-529.33 37.065-94.863s3.625-8.3626 7.2389-8.5941c-0.18098-1.6154-1.2448-10.503-1.3584-11.41l-39.81 101.95c-3.2058 6.6334-6.7519 2.2183-9.3843-1.9551zm37.113 1.8418v1.3887" fill="url(#linearGradient4480)"/>
  </g>
 </g>
</svg>
