<?xml version="1.0" encoding="UTF-8" standalone="no"?>
<!-- Created with Inkscape (http://www.inkscape.org/) -->

<svg
   xmlns:dc="http://purl.org/dc/elements/1.1/"
   xmlns:cc="http://creativecommons.org/ns#"
   xmlns:rdf="http://www.w3.org/1999/02/22-rdf-syntax-ns#"
   xmlns:svg="http://www.w3.org/2000/svg"
   xmlns="http://www.w3.org/2000/svg"
   xmlns:sodipodi="http://sodipodi.sourceforge.net/DTD/sodipodi-0.dtd"
   xmlns:inkscape="http://www.inkscape.org/namespaces/inkscape"
   width="59.354618mm"
   height="28.279196mm"
   viewBox="0 0 210.31163 100.20187"
   id="svg6179"
   version="1.1"
   inkscape:version="0.91 r13725"
   sodipodi:docname="logo.svg">
  <defs
     id="defs6181" />
  <sodipodi:namedview
     id="base"
     pagecolor="#ffffff"
     bordercolor="#666666"
     borderopacity="1.0"
     inkscape:pageopacity="0.0"
     inkscape:pageshadow="2"
     inkscape:zoom="0.98994949"
     inkscape:cx="192.10787"
     inkscape:cy="152.96904"
     inkscape:document-units="px"
     inkscape:current-layer="layer1"
     showgrid="false"
     inkscape:window-width="760"
     inkscape:window-height="539"
     inkscape:window-x="478"
     inkscape:window-y="279"
     inkscape:window-maximized="0"
     inkscape:snap-global="false"
     fit-margin-top="1"
     fit-margin-left="1"
     fit-margin-right="1"
     fit-margin-bottom="1" />
  <metadata
     id="metadata6184">
    <rdf:RDF>
      <cc:Work
         rdf:about="">
        <dc:format>image/svg+xml</dc:format>
        <dc:type
           rdf:resource="http://purl.org/dc/dcmitype/StillImage" />
        <dc:title></dc:title>
      </cc:Work>
    </rdf:RDF>
  </metadata>
  <g
     inkscape:label="Layer 1"
     inkscape:groupmode="layer"
     id="layer1"
     transform="translate(-207.34453,-463.12873)">
    <path
       style="fill:#373e48;fill-rule:evenodd;stroke:#373e48;stroke-width:1.86921895;stroke-linecap:round;stroke-linejoin:round;stroke-miterlimit:4;stroke-dasharray:none;stroke-opacity:1"
       d="m 394.64003,467.60696 c -1.35202,-0.0346 -6.45452,5.44428 -4.16995,16.76606 0.87859,0.57398 1.73716,1.00311 2.5695,1.34039 -5.73836,9.86964 -13.49099,20.46796 -16.49449,20.97337 -0.30549,-0.78992 -0.38369,-2.92034 -0.25201,-5.53173 2.75733,-2.48109 9.53706,-8.75483 10.07028,-11.02751 -0.0206,-3.1592 -0.11411,-3.56654 -1.80474,-5.92941 0,0 -4.77692,-2.27447 -7.66484,-2.08435 -5.52949,5.07119 -7.21349,18.76596 -5.74492,24.54119 1.52887,2.53719 6.6593,2.8991 6.6593,2.8991 2.52424,-0.80899 10.59796,-12.96668 16.59532,-23.36798 1.53243,0.43962 2.92192,0.55131 4.06846,0.5044 -2.81988,4.52223 -7.58614,14.10656 -5.29437,21.48557 3.19184,3.73071 7.98695,2.20111 7.98695,2.20111 0.76181,0.99397 11.54358,-14.83464 12.01374,-27.26557 -1.59953,-2.72812 -3.12007,-4.07097 -3.12007,-4.07097 2.29532,3.96963 -5.06302,32.24547 -11.61911,30.02084 -4.7977,-3.88582 5.20883,-20.72088 6.72135,-21.70849 -1.06451,-1.36985 -3.5378,-2.5568 -4.91294,-3.35728 -0.60962,0.45442 -3.28137,1.8091 -4.77528,0.30941 3.20191,-5.68096 5.62153,-10.5752 5.8734,-12.33221 -0.44504,-0.96884 -0.92654,-1.64154 -0.92654,-1.64154 0.005,0.15968 -0.6022,-0.44434 -0.60721,-0.12511 -0.0363,2.29754 -2.10067,7.04179 -4.99573,12.35715 0.54659,-4.6881 2.93112,-10.00685 5.12203,-12.88739 -1.29268,-1.79299 -5.29786,-2.06907 -5.29786,-2.06907 z m -30.64764,17.00934 c -0.42545,0.26717 -0.99367,1.64525 -1.65639,3.80538 -0.45953,-0.23527 -5.96388,-3.02358 -8.73288,-2.8413 -5.6807,3.70569 -7.89353,12.40363 -8.30294,20.59666 -2.05231,3.65264 -4.38119,7.23418 -6.16414,8.39471 -1.18093,-3.94316 3.25688,-21.64964 5.87172,-24.78098 -3.04261,-2.41888 -6.42958,-2.14757 -6.42958,-2.14757 -0.22522,0.10793 -0.58455,1.07073 -1.00591,2.52738 -1.7795,-0.8497 -5.7598,-2.61012 -7.96493,-2.46495 -5.61953,3.66578 -7.91933,12.96765 -8.38938,21.36525 -2.25425,3.7937 -4.82259,8.94706 -6.60213,10.24237 -1.22195,-4.08013 3.71274,-23.73744 6.41841,-26.9776 -3.14833,-2.5029 -6.82077,-2.55044 -6.82077,-2.55044 -4.95195,9.09507 -9.37373,20.33728 -13.76281,30.0089 0.39193,-3.54794 7.20491,-25.26729 6.13675,-26.67923 -1.5497,-0.66615 -6.30335,-1.12033 -6.30335,-1.12033 0.65456,1.71088 -2.63383,15.74889 -4.21579,23.2872 -2.58114,4.29558 -5.64461,7.90529 -7.08191,9.31117 -1.22195,-4.08013 4.7597,-26.58135 7.46538,-29.82149 -3.14833,-2.5029 -6.65356,-2.22314 -6.65356,-2.22314 -0.25967,0.12445 -0.76499,1.60446 -1.37671,3.78885 -1.86258,-0.89262 -6.14476,-2.79887 -8.51956,-2.64254 -5.11315,3.33545 -7.84547,12.3071 -8.91199,20.83304 -0.60257,1.3264 -6.94495,15.06706 -10.04598,17.18601 -1.06927,-7.04015 9.96447,-41.4542 10.16856,-43.32886 -0.7004,-0.75745 -4.05122,-2.59369 -7.27328,-3.10455 -3.18197,1.20065 -19.47737,44.6027 -20.36655,47.0796 0.59383,-2.64572 12.13206,-45.89802 12.13206,-45.89802 0,0 -3.32755,-1.88736 -7.98412,-2.00646 -4.79962,4.22578 -17.40214,45.88479 -19.9745,51.46339 0.88366,-6.42812 9.71958,-48.37372 9.88315,-49.82094 -3.0601,-1.69423 -6.20755,-2.43527 -8.15443,-2.8573 -5.90653,-1.03761 -18.05864,13.1112 -17.53549,23.56162 1.19827,2.36718 4.77185,5.55713 4.77185,5.55713 -4.1709,-7.47789 6.65809,-29.00253 11.78432,-28.03003 1.56908,1.42071 -7.05048,42.80093 -9.10369,57.03699 0.14136,0.80531 6.90972,3.9671 8.14017,3.51475 1.8985,-8.65992 16.39169,-56.14601 19.4862,-55.2193 0.97867,0.29309 -10.03164,36.51365 -10.39219,46.27973 0,0 4.31016,3.21488 8.0673,2.6659 1.54405,-8.67023 17.66427,-50.99423 19.0947,-49.88104 0.604,0.49925 -10.67859,36.94381 -10.08476,43.2277 0.15049,1.59199 4.74473,2.95486 7.14353,3.01621 1.90239,0.0487 7.95025,-12.40461 9.86263,-16.46978 -0.15923,2.34946 -0.19666,4.5883 -0.11872,6.56743 1.62857,2.70258 6.37758,3.95348 6.37758,3.95348 0.79645,-0.98364 4.57013,-8.70192 7.53295,-15.05738 -0.83473,4.39109 -1.3584,7.94058 -1.13028,8.70554 0.68535,2.2982 5.51849,4.3634 6.08923,4.0359 0.27165,-0.15588 3.06368,-2.71298 5.91149,-6.75806 -0.015,0.22541 -0.0201,0.42282 -0.006,0.56112 0.57578,1.3268 4.50343,3.46384 5.56821,3.24306 1.77989,-6.1913 8.1255,-22.06987 11.16885,-26.55054 -1.65622,7.31843 -3.46071,18.87472 -3.01982,20.3531 0.68537,2.2982 5.51849,4.36341 6.08923,4.03591 0.27639,-0.15863 3.16052,-4.10645 6.05996,-8.23023 -0.005,0.88994 0.003,1.76662 0.0362,2.60642 1.52887,2.53719 5.98637,3.71024 5.98637,3.71024 0.78384,-0.96808 4.65505,-10.17169 7.48325,-16.2752 -0.75329,4.18789 -1.23295,9.05287 -0.98303,9.89092 0.66241,2.22104 5.33384,2.9548 5.88547,2.6383 0.2619,-0.15033 2.94893,-3.82736 5.69475,-7.72697 -0.0164,1.10013 -0.006,2.18589 0.0354,3.23626 1.52886,2.53719 6.0893,3.14288 6.0893,3.14288 0.77462,-0.95668 4.86615,-8.25219 7.92374,-13.96479 -1.23636,5.55443 -2.80919,10.73639 -4.08314,17.23326 -12.26869,1.57567 -15.59928,1.90179 -17.54831,1.64652 0.0236,1.67699 0.13366,2.34174 0.46276,4.67153 2.55671,1.55002 9.56391,30.24242 10.13934,33.17439 2.18407,1.86585 5.29468,1.46497 5.29468,1.46497 -0.65429,-4.72356 2.4263,-22.03784 6.28422,-37.82185 14.17906,-1.34182 29.58993,-4.95465 31.93981,-7.93009 -0.14707,-1.65901 -0.57104,-3.3062 -2.29347,-6.75387 -2.31329,4.20304 -15.45518,8.77576 -28.67882,10.76493 3.98189,-15.89579 8.46655,-29.27085 9.3455,-30.48783 -2.32012,-1.05171 -5.02832,-2.07327 -6.15416,-1.96342 z m 19.30572,5.7696 c -1.21296,2.98779 -4.80389,6.9116 -6.89206,9.04337 0.4613,-5.77933 2.35156,-14.24916 4.53146,-15.14919 1.02527,-0.0366 3.1802,4.10201 2.3606,6.10582 z m -21.39279,-0.50223 c -0.0789,0.27965 -0.16043,0.58628 -0.24151,0.88436 -0.32545,1.63487 -0.51319,1.96364 -0.70418,2.74464 -2.13766,6.73264 -7.90937,16.45785 -9.93283,17.99814 -1.0053,-2.59951 1.81129,-20.84143 5.26434,-22.26712 1.5013,-0.82501 3.74783,-0.7432 5.61418,0.63998 z m -24.70772,1.64805 c -0.40937,1.55909 -0.8521,3.49337 -1.28754,5.50983 -2.03141,4.94241 -6.97529,17.92031 -8.81805,19.323 -1.0053,-2.5995 1.74952,-23.56871 5.20257,-24.99439 1.56225,-0.58715 3.28027,-0.72687 4.90302,0.16153 z m -49.17261,6.25954 c -0.68828,2.60538 -1.46795,5.87994 -2.20063,9.2282 -2.4509,5.68575 -7.37149,16.73229 -9.20154,18.12535 -1.07082,-2.76895 2.46447,-26.02932 6.14258,-27.54793 1.67481,-0.62901 3.52038,-0.77731 5.2596,0.19434 z m 66.47841,23.67015 c -3.18528,16.49011 -5.65506,33.38653 -5.65506,33.38653 l -6.94959,-32.32078 c 0,0 1.41222,-0.12704 12.60465,-1.06572 z"
       id="path5306-4"
       inkscape:connector-curvature="0"
       sodipodi:nodetypes="cccccccccccccccccccccccccccccccccccccccccccccccccccccccccccccccsccccsccccscccccscccccccccccccccccccccccccsccccscccsscccsccccccccccc"
       inkscape:export-filename="D:\inkscape\2017\path6787-1.png"
       inkscape:export-xdpi="181"
       inkscape:export-ydpi="181" />
  </g>
</svg>
